<svg width="25" height="26" viewBox="0 0 25 26" fill="none" xmlns="http://www.w3.org/2000/svg">
                <path d="M20.7866 11.7167C20.5117 11.7167 20.2481 11.8259 20.0538 12.0202C19.8594 12.2146 19.7502 12.4782 19.7502 12.7531V20.0076C19.7502 20.2825 19.6411 20.5461 19.4467 20.7404C19.2523 20.9348 18.9887 21.044 18.7139 21.044H4.20479C3.92993 21.044 3.66633 20.9348 3.47197 20.7404C3.27762 20.5461 3.16843 20.2825 3.16843 20.0076V11.7167C3.16843 11.4418 3.27762 11.1782 3.47197 10.9839C3.66633 10.7895 3.92993 10.6803 4.20479 10.6803H6.27752C6.50352 10.6921 6.72716 10.6296 6.9143 10.5024C7.10143 10.3751 7.24177 10.1901 7.31388 9.9756L7.87352 8.27596C7.94305 8.07012 8.07551 7.89133 8.25218 7.76487C8.42885 7.63841 8.6408 7.57067 8.85807 7.57124H14.5684C14.8433 7.57124 15.1069 7.46205 15.3012 7.26769C15.4956 7.07334 15.6048 6.80973 15.6048 6.53487C15.6048 6.26001 15.4956 5.99641 15.3012 5.80205C15.1069 5.6077 14.8433 5.49851 14.5684 5.49851H8.80625C8.15494 5.49973 7.52047 5.70545 6.99237 6.08665C6.46427 6.46785 6.06922 7.00527 5.86298 7.62305L5.53134 8.65942H4.20479C3.38021 8.65942 2.5894 8.98698 2.00633 9.57005C1.42327 10.1531 1.0957 10.9439 1.0957 11.7685V20.0594C1.0957 20.884 1.42327 21.6748 2.00633 22.2579C2.5894 22.8409 3.38021 23.1685 4.20479 23.1685H18.7139C19.5385 23.1685 20.3293 22.8409 20.9123 22.2579C21.4954 21.6748 21.823 20.884 21.823 20.0594V12.8049C21.83 12.6645 21.8084 12.5241 21.7595 12.3923C21.7105 12.2606 21.6353 12.1401 21.5384 12.0383C21.4414 11.9365 21.3248 11.8555 21.1956 11.8002C21.0663 11.7449 20.9272 11.7165 20.7866 11.7167ZM11.4593 10.6803C10.6394 10.6803 9.83796 10.9235 9.15625 11.379C8.47453 11.8345 7.9432 12.4819 7.62944 13.2394C7.31568 13.9969 7.23358 14.8304 7.39354 15.6345C7.55349 16.4387 7.94831 17.1773 8.52806 17.7571C9.10781 18.3368 9.84646 18.7316 10.6506 18.8916C11.4547 19.0515 12.2883 18.9694 13.0457 18.6557C13.8032 18.3419 14.4506 17.8106 14.9062 17.1289C15.3617 16.4472 15.6048 15.6457 15.6048 14.8258C15.6048 13.7263 15.168 12.6719 14.3906 11.8945C13.6132 11.1171 12.5588 10.6803 11.4593 10.6803ZM11.4593 16.8985C11.0494 16.8985 10.6487 16.7769 10.3078 16.5492C9.96693 16.3214 9.70127 15.9977 9.54439 15.619C9.38751 15.2402 9.34646 14.8235 9.42644 14.4214C9.50641 14.0193 9.70382 13.65 9.9937 13.3601C10.2836 13.0703 10.6529 12.8729 11.055 12.7929C11.457 12.7129 11.8738 12.754 12.2525 12.9108C12.6313 13.0677 12.955 13.3334 13.1827 13.6742C13.4105 14.0151 13.5321 14.4158 13.5321 14.8258C13.5321 15.3755 13.3137 15.9027 12.925 16.2914C12.5363 16.6801 12.0091 16.8985 11.4593 16.8985ZM22.8593 5.49851H21.823V4.46214C21.823 4.18728 21.7138 3.92368 21.5194 3.72933C21.3251 3.53497 21.0615 3.42578 20.7866 3.42578C20.5117 3.42578 20.2481 3.53497 20.0538 3.72933C19.8594 3.92368 19.7502 4.18728 19.7502 4.46214V5.49851H18.7139C18.439 5.49851 18.1754 5.6077 17.9811 5.80205C17.7867 5.99641 17.6775 6.26001 17.6775 6.53487C17.6775 6.80973 17.7867 7.07334 17.9811 7.26769C18.1754 7.46205 18.439 7.57124 18.7139 7.57124H19.7502V8.6076C19.7502 8.88246 19.8594 9.14606 20.0538 9.34042C20.2481 9.53477 20.5117 9.64396 20.7866 9.64396C21.0615 9.64396 21.3251 9.53477 21.5194 9.34042C21.7138 9.14606 21.823 8.88246 21.823 8.6076V7.57124H22.8593C23.1342 7.57124 23.3978 7.46205 23.5922 7.26769C23.7865 7.07334 23.8957 6.80973 23.8957 6.53487C23.8957 6.26001 23.7865 5.99641 23.5922 5.80205C23.3978 5.6077 23.1342 5.49851 22.8593 5.49851Z" fill="white"/>
            </svg>