 <svg width="22" height="22" viewBox="0 0 22 22" fill="none" xmlns="http://www.w3.org/2000/svg">
            <path d="M11 2.75C8.97783 2.75 7.33333 4.3945 7.33333 6.41667C7.33333 8.43883 8.97783 10.0833 11 10.0833C13.0222 10.0833 14.6667 8.43883 14.6667 6.41667C14.6667 4.3945 13.0222 2.75 11 2.75ZM11 4.58333C12.0111 4.58333 12.8333 5.40558 12.8333 6.41667C12.8333 7.42775 12.0111 8.25 11 8.25C9.98892 8.25 9.16667 7.42775 9.16667 6.41667C9.16667 5.40558 9.98892 4.58333 11 4.58333ZM16.5 11C14.8388 11 13.3463 11.7489 12.3356 12.9229C11.8585 12.8679 11.4016 12.8333 11 12.8333C8.12075 12.8333 2.75 14.2496 2.75 16.9583V19.25H11.7484C12.7035 20.8888 14.4765 22 16.5 22C19.525 22 22 19.525 22 16.5C22 13.475 19.525 11 16.5 11ZM15.5833 13.75H17.4167V15.5833H19.25V17.4167H17.4167V19.25H15.5833V17.4167H13.75V15.5833H15.5833V13.75ZM11 14.6667C11.1039 14.6667 11.2104 14.6827 11.3151 14.6864C11.1145 15.2555 11 15.8645 11 16.5C11 16.8128 11.0333 17.1177 11.0841 17.4167H4.58333V16.9583C4.58333 16.1617 7.98233 14.6667 11 14.6667Z" fill="#0D2A52"/>
        </svg>