 <svg width="20" height="20" viewBox="0 0 20 20" fill="none" xmlns="http://www.w3.org/2000/svg">
                <path d="M17.3333 2C17.2694 2.00044 17.2058 2.01009 17.1445 2.02865C17.1265 2.03354 17.1087 2.03919 17.0911 2.04557L2.43359 6.70703V6.70964C2.30642 6.75709 2.19676 6.84224 2.11928 6.95369C2.0418 7.06514 2.00018 7.19759 2 7.33333C2.00024 7.44781 2.02996 7.5603 2.08629 7.65996C2.14262 7.75962 2.22366 7.84309 2.32161 7.90234L6.77604 11.4362L15.582 4.41797L8.5638 13.224L12.0951 17.6758C12.1542 17.7746 12.238 17.8564 12.3381 17.9132C12.4383 17.97 12.5515 17.9999 12.6667 18C12.8024 17.9998 12.9349 17.9582 13.0463 17.8807C13.1578 17.8032 13.2429 17.6936 13.2904 17.5664H13.293L17.9583 2.89583C17.9631 2.88252 17.9674 2.86906 17.9714 2.85547C17.9899 2.79424 17.9996 2.73065 18 2.66667C18 2.48986 17.9298 2.32029 17.8047 2.19526C17.6797 2.07024 17.5101 2 17.3333 2Z" fill="#FFC4B4"/>
            </svg>