<svg width="56" height="56" viewBox="0 0 56 56" fill="none" xmlns="http://www.w3.org/2000/svg">
<rect x="4" y="4" width="48" height="48" rx="24" fill="#FFF5F1"/>
<path fill-rule="evenodd" clip-rule="evenodd" d="M25 20C25 21.1046 24.1046 22 23 22C21.8954 22 21 21.1046 21 20C21 18.8954 21.8954 18 23 18C24.1046 18 25 18.8954 25 20ZM23 22C21.3431 22 20 22.8954 20 24C20 25.1046 21.3431 26 23 26C24.6569 26 26 25.1046 26 24C26 22.8954 24.6569 22 23 22ZM34 34C35.1046 34 36 33.1046 36 32C36 30.8954 35.1046 30 34 30C32.8954 30 32 30.8954 32 32C32 33.1046 32.8954 34 34 34ZM34 34C35.6569 34 37 34.8954 37 36C37 37.1046 35.6569 38 34 38C32.3431 38 31 37.1046 31 36C31 34.8954 32.3431 34 34 34ZM27.25 19C27.25 18.5858 27.5858 18.25 28 18.25C33.3848 18.25 37.75 22.6152 37.75 28C37.75 28.4142 37.4142 28.75 37 28.75C36.5858 28.75 36.25 28.4142 36.25 28C36.25 23.4437 32.5563 19.75 28 19.75C27.5858 19.75 27.25 19.4142 27.25 19ZM19 27.25C19.4142 27.25 19.75 27.5858 19.75 28C19.75 32.5563 23.4437 36.25 28 36.25C28.4142 36.25 28.75 36.5858 28.75 37C28.75 37.4142 28.4142 37.75 28 37.75C22.6152 37.75 18.25 33.3848 18.25 28C18.25 27.5858 18.5858 27.25 19 27.25Z" fill="#FFC4B4"/>
<rect x="4" y="4" width="48" height="48" rx="24" stroke="#FEF0EB" stroke-width="8"/>
</svg>
