<svg width="20" height="20" viewBox="0 0 20 20" fill="none" xmlns="http://www.w3.org/2000/svg">
                <path fillRule="evenodd" clipRule="evenodd" d="M13.094 13.9774C13.3381 14.2214 13.7338 14.2214 13.9779 13.9774C14.2219 13.7333 14.2219 13.3376 13.9779 13.0935L10.8843 9.9999L13.9779 6.90633C14.2219 6.66226 14.2219 6.26653 13.9779 6.02245C13.7338 5.77837 13.338 5.77837 13.094 6.02245L10.0004 9.11602L6.90679 6.02241C6.66271 5.77834 6.26699 5.77834 6.02291 6.02241C5.77883 6.26649 5.77883 6.66222 6.02291 6.9063L9.11652 9.9999L6.0229 13.0935C5.77882 13.3376 5.77882 13.7333 6.0229 13.9774C6.26698 14.2215 6.66271 14.2215 6.90679 13.9774L10.0004 10.8838L13.094 13.9774Z" fill="#F8F9FA"/>
            </svg>