<svg width="9" height="8" viewBox="0 0 9 8" fill="none" xmlns="http://www.w3.org/2000/svg">
                <path fillRule="evenodd" clipRule="evenodd" d="M8.85355 4.35356C9.04882 4.1583 9.04882 3.84171 8.85355 3.64645L6.18689 0.979785C5.99162 0.784523 5.67504 0.784523 5.47978 0.979785C5.28452 1.17505 5.28452 1.49163 5.47978 1.68689L7.29289 3.50001L0.499999 3.50001C0.223857 3.50001 -9.53674e-07 3.72386 -9.53674e-07 4.00001C-9.53674e-07 4.27615 0.223857 4.50001 0.499999 4.50001H7.29289L5.47978 6.31312C5.28452 6.50838 5.28452 6.82496 5.47978 7.02023C5.67504 7.21549 5.99162 7.21549 6.18689 7.02023L8.85355 4.35356Z" fill="#F8F9FA"/>
            </svg>