<svg width="100" height="100" viewBox="0 0 100 100" fill="none" xmlns="http://www.w3.org/2000/svg">
<path d="M78 13C77.7348 13 77.4804 13.1054 77.2929 13.2929C77.1054 13.4804 77 13.7348 77 14C77 14.2652 77.1054 14.5196 77.2929 14.7071C77.4804 14.8946 77.7348 15 78 15C78.2652 15 78.5196 14.8946 78.7071 14.7071C78.8946 14.5196 79 14.2652 79 14C79 13.7348 78.8946 13.4804 78.7071 13.2929C78.5196 13.1054 78.2652 13 78 13Z" fill="#6C5878"/>
<path d="M50 12C39.9218 12 30.2563 16.0036 23.1299 23.1299C16.0036 30.2563 12 39.9218 12 50C12 60.0782 16.0036 69.7437 23.1299 76.8701C30.2563 83.9964 39.9218 88 50 88C60.0782 88 69.7437 83.9964 76.8701 76.8701C83.9964 69.7437 88 60.0782 88 50C88 39.9218 83.9964 30.2563 76.8701 23.1299C69.7437 16.0036 60.0782 12 50 12Z" fill="#FFF3EF"/>
<path d="M84 12C82.9391 12 81.9217 12.4214 81.1716 13.1716C80.4214 13.9217 80 14.9391 80 16C80 17.0609 80.4214 18.0783 81.1716 18.8284C81.9217 19.5786 82.9391 20 84 20C85.0609 20 86.0783 19.5786 86.8284 18.8284C87.5786 18.0783 88 17.0609 88 16C88 14.9391 87.5786 13.9217 86.8284 13.1716C86.0783 12.4214 85.0609 12 84 12Z" fill="#6C5878"/>
<path d="M14 24C13.4696 24 12.9609 24.2107 12.5858 24.5858C12.2107 24.9609 12 25.4696 12 26C12 26.5304 12.2107 27.0391 12.5858 27.4142C12.9609 27.7893 13.4696 28 14 28C14.5304 28 15.0391 27.7893 15.4142 27.4142C15.7893 27.0391 16 26.5304 16 26C16 25.4696 15.7893 24.9609 15.4142 24.5858C15.0391 24.2107 14.5304 24 14 24Z" fill="#EE3E54"/>
<path d="M78 75C77.4696 75 76.9609 75.2107 76.5858 75.5858C76.2107 75.9609 76 76.4696 76 77C76 77.5304 76.2107 78.0391 76.5858 78.4142C76.9609 78.7893 77.4696 79 78 79C78.5304 79 79.0391 78.7893 79.4142 78.4142C79.7893 78.0391 80 77.5304 80 77C80 76.4696 79.7893 75.9609 79.4142 75.5858C79.0391 75.2107 78.5304 75 78 75ZM17 74C15.9391 74 14.9217 74.4214 14.1716 75.1716C13.4214 75.9217 13 76.9391 13 78C13 79.0609 13.4214 80.0783 14.1716 80.8284C14.9217 81.5786 15.9391 82 17 82C18.0609 82 19.0783 81.5786 19.8284 80.8284C20.5786 80.0783 21 79.0609 21 78C21 76.9391 20.5786 75.9217 19.8284 75.1716C19.0783 74.4214 18.0609 74 17 74Z" fill="#6C5878"/>
<path d="M24 81C23.4696 81 22.9609 81.2107 22.5858 81.5858C22.2107 81.9609 22 82.4696 22 83C22 83.5304 22.2107 84.0391 22.5858 84.4142C22.9609 84.7893 23.4696 85 24 85C24.5304 85 25.0391 84.7893 25.4142 84.4142C25.7893 84.0391 26 83.5304 26 83C26 82.4696 25.7893 81.9609 25.4142 81.5858C25.0391 81.2107 24.5304 81 24 81Z" fill="#EE3E54"/>
<path d="M66.483 76.034C66.1569 76.034 65.8341 76.0982 65.5328 76.223C65.2315 76.3478 64.9578 76.5307 64.7273 76.7613C64.4967 76.9918 64.3138 77.2655 64.189 77.5668C64.0642 77.868 64 78.1909 64 78.517C64 78.8431 64.0642 79.1659 64.189 79.4672C64.3138 79.7685 64.4967 80.0422 64.7273 80.2727C64.9578 80.5033 65.2315 80.6862 65.5328 80.811C65.8341 80.9358 66.1569 81 66.483 81C66.8091 81 67.132 80.9358 67.4332 80.811C67.7345 80.6862 68.0082 80.5033 68.2387 80.2727C68.4693 80.0422 68.6522 79.7685 68.777 79.4672C68.9018 79.1659 68.966 78.8431 68.966 78.517C68.966 78.1909 68.9018 77.868 68.777 77.5668C68.6522 77.2655 68.4693 76.9918 68.2387 76.7613C68.0082 76.5307 67.7345 76.3478 67.4332 76.223C67.132 76.0982 66.8091 76.034 66.483 76.034ZM16 47C15.7348 47 15.4804 47.1054 15.2929 47.2929C15.1054 47.4804 15 47.7348 15 48C15 48.2652 15.1054 48.5196 15.2929 48.7071C15.4804 48.8946 15.7348 49 16 49C16.2652 49 16.5196 48.8946 16.7071 48.7071C16.8946 48.5196 17 48.2652 17 48C17 47.7348 16.8946 47.4804 16.7071 47.2929C16.5196 47.1054 16.2652 47 16 47Z" fill="white"/>
<path d="M86 30C85.7348 30 85.4804 30.1054 85.2929 30.2929C85.1054 30.4804 85 30.7348 85 31C85 31.2652 85.1054 31.5196 85.2929 31.7071C85.4804 31.8946 85.7348 32 86 32C86.2652 32 86.5196 31.8946 86.7071 31.7071C86.8946 31.5196 87 31.2652 87 31C87 30.7348 86.8946 30.4804 86.7071 30.2929C86.5196 30.1054 86.2652 30 86 30Z" fill="#6C5878"/>
<path d="M80 64C79.4696 64 78.9609 64.2107 78.5858 64.5858C78.2107 64.9609 78 65.4696 78 66C78 66.5304 78.2107 67.0391 78.5858 67.4142C78.9609 67.7893 79.4696 68 80 68C80.5304 68 81.0391 67.7893 81.4142 67.4142C81.7893 67.0391 82 66.5304 82 66C82 65.4696 81.7893 64.9609 81.4142 64.5858C81.0391 64.2107 80.5304 64 80 64Z" fill="white"/>
<path d="M74 40V60C74 61.91 73.11 63.61 71.72 64.71C70.7 65.52 69.41 66 68 66H32C30.59 66 29.29 65.52 28.27 64.69C26.89 63.6 26 61.9 26 60V40C26 37.94 27.05 36.11 28.64 35.05C28.69 35 28.75 34.96 28.8 34.93C29.72 34.34 30.82 34 32 34H68C69.18 34 70.28 34.34 71.2 34.93C71.25 34.96 71.31 35 71.36 35.05C72.95 36.11 74 37.94 74 40Z" fill="#78A0CF"/>
<path d="M71.72 64.71C70.7 65.52 69.41 66 68 66H32C30.59 66 29.29 65.52 28.27 64.69L50 45.95L71.72 64.71Z" fill="#457FAF"/>
<path d="M71.36 35.05L50 52.62L28.64 35.05C28.69 35 28.75 34.96 28.8 34.93C29.72 34.34 30.82 34 32 34H68C69.18 34 70.28 34.34 71.2 34.93C71.25 34.96 71.31 35 71.36 35.05Z" fill="#C5DEF0"/>
<path d="M50 53C49.916 53 49.831 52.972 49.762 52.915L28.546 35.467C28.386 35.336 28.363 35.099 28.495 34.939C28.627 34.779 28.864 34.756 29.023 34.888L50 52.14L70.978 34.889C71.137 34.757 71.373 34.78 71.506 34.94C71.638 35.1 71.614 35.336 71.455 35.468L50.238 52.915C50.169 52.972 50.084 53 50 53ZM28.226 65.131C28.121 65.131 28.017 65.087 27.942 65.001C27.807 64.844 27.824 64.607 27.981 64.472L42.277 52.084C42.432 51.947 42.671 51.963 42.806 52.12C42.942 52.276 42.927 52.513 42.77 52.649L39.043 55.904L28.471 65.04C28.4 65.102 28.313 65.131 28.226 65.131Z" fill="#472B29"/>
<path d="M68 34.4C71.088 34.4 73.6 36.912 73.6 40V60C73.6 63.088 71.088 65.6 68 65.6H32C28.912 65.6 26.4 63.088 26.4 60V40C26.4 36.912 28.912 34.4 32 34.4H68ZM68 33H32C28.134 33 25 36.134 25 40V60C25 63.866 28.134 67 32 67H68C71.866 67 75 63.866 75 60V40C75 36.134 71.866 33 68 33Z" fill="#472B29"/>
<path d="M71.774 65.131C71.687 65.131 71.599 65.101 71.528 65.039L57.239 52.65C57.082 52.514 57.066 52.277 57.201 52.121C57.336 51.965 57.574 51.949 57.73 52.083L72.02 64.472C72.177 64.608 72.193 64.845 72.058 65.001C71.983 65.087 71.879 65.131 71.774 65.131Z" fill="#472B29"/>
</svg>
