<svg width="20" height="20" viewBox="0 0 20 20" fill="none" xmlns="http://www.w3.org/2000/svg">
<path d="M17.6086 8.21087C18.5749 9.2276 18.5749 10.7723 17.6086 11.789C15.9787 13.5038 13.1796 15.8333 9.99999 15.8333C6.82039 15.8333 4.02123 13.5038 2.39141 11.789C1.42507 10.7723 1.42507 9.2276 2.39141 8.21087C4.02123 6.49607 6.82039 4.16663 9.99999 4.16663C13.1796 4.16663 15.9787 6.49607 17.6086 8.21087Z" stroke="#023D7A" stroke-width="1.5"/>
<path d="M12.5 9.99996C12.5 11.3807 11.3807 12.5 9.99999 12.5C8.61928 12.5 7.49999 11.3807 7.49999 9.99996C7.49999 8.61925 8.61928 7.49996 9.99999 7.49996C11.3807 7.49996 12.5 8.61925 12.5 9.99996Z" stroke="#023D7A" stroke-width="1.5"/>
</svg>
