<svg width="20" height="20" viewBox="0 0 20 20" fill="none" xmlns="http://www.w3.org/2000/svg">
<path d="M5.83301 17.5L5.83301 13.3333M5.83301 4.16667V2.5M5.83301 4.16667C7.21372 4.16667 8.33301 5.28595 8.33301 6.66667V8.33333C8.33301 9.71404 7.21372 10.8333 5.83301 10.8333C4.4523 10.8333 3.33301 9.71404 3.33301 8.33333V6.66667C3.33301 5.28595 4.4523 4.16667 5.83301 4.16667ZM14.1663 6.66667V2.5M14.1663 17.5V15.8333M14.1663 15.8333C15.5471 15.8333 16.6663 14.714 16.6663 13.3333V11.6667C16.6663 10.286 15.5471 9.16667 14.1663 9.16667C12.7856 9.16667 11.6663 10.286 11.6663 11.6667V13.3333C11.6663 14.714 12.7856 15.8333 14.1663 15.8333Z" stroke="#344054" stroke-width="1.5" stroke-linecap="round"/>
</svg>
