<svg width="16" height="18" viewBox="0 0 16 18" fill="none" xmlns="http://www.w3.org/2000/svg">
                <path d="M3.83301 16.5L3.83301 12.3333M3.83301 3.16667V1.5M3.83301 3.16667C5.21372 3.16667 6.33301 4.28595 6.33301 5.66667V7.33333C6.33301 8.71404 5.21372 9.83333 3.83301 9.83333C2.4523 9.83333 1.33301 8.71404 1.33301 7.33333V5.66667C1.33301 4.28595 2.4523 3.16667 3.83301 3.16667ZM12.1663 5.66667V1.5M12.1663 16.5V14.8333M12.1663 14.8333C13.5471 14.8333 14.6663 13.714 14.6663 12.3333V10.6667C14.6663 9.28595 13.5471 8.16667 12.1663 8.16667C10.7856 8.16667 9.66634 9.28595 9.66634 10.6667V12.3333C9.66634 13.714 10.7856 14.8333 12.1663 14.8333Z" stroke="#344054" strokeWidth="1.5" strokeLinecap="round"/>
            </svg>