 <svg width="20" height="20" viewBox="0 0 20 20" fill="none" xmlns="http://www.w3.org/2000/svg">
                <path d="M9 0.75C6.97783 0.75 5.33333 2.3945 5.33333 4.41667C5.33333 6.43883 6.97783 8.08333 9 8.08333C11.0222 8.08333 12.6667 6.43883 12.6667 4.41667C12.6667 2.3945 11.0222 0.75 9 0.75ZM9 2.58333C10.0111 2.58333 10.8333 3.40558 10.8333 4.41667C10.8333 5.42775 10.0111 6.25 9 6.25C7.98892 6.25 7.16667 5.42775 7.16667 4.41667C7.16667 3.40558 7.98892 2.58333 9 2.58333ZM14.5 9.91667C11.9333 9.91667 9.91667 11.9333 9.91667 14.5C9.91667 17.0667 11.9333 19.0833 14.5 19.0833C15.4167 19.0833 16.3341 18.8076 17.0674 18.3493L18.7163 20L20 18.7163L18.3493 17.0674C18.8076 16.3341 19.0833 15.4167 19.0833 14.5C19.0833 11.9333 17.0667 9.91667 14.5 9.91667ZM9 10.8333C6.12075 10.8333 0.75 12.2505 0.75 14.9583V17.25H8.70996C8.43863 16.6798 8.24932 16.0648 8.15674 15.4167H2.58333V14.9583C2.58333 14.2186 5.51218 12.8788 8.34652 12.6899C8.54268 12.0208 8.84495 11.3997 9.23454 10.8405C9.15662 10.8387 9.07425 10.8333 9 10.8333ZM14.5 11.75C16.0583 11.75 17.25 12.9417 17.25 14.5C17.25 16.0583 16.0583 17.25 14.5 17.25C12.9417 17.25 11.75 16.0583 11.75 14.5C11.75 12.9417 12.9417 11.75 14.5 11.75Z" fill="#0D2A52"/>
            </svg>