<svg width="22" height="22" viewBox="0 0 22 22" fill="none" xmlns="http://www.w3.org/2000/svg">
                <path d="M7.33366 4.5835C5.81474 4.5835 4.58366 5.81458 4.58366 7.3335C4.58366 8.85241 5.81474 10.0835 7.33366 10.0835C8.85258 10.0835 10.0837 8.85241 10.0837 7.3335C10.0837 5.81458 8.85258 4.5835 7.33366 4.5835ZM14.667 4.5835C13.1481 4.5835 11.917 5.81458 11.917 7.3335C11.917 8.85241 13.1481 10.0835 14.667 10.0835C16.1859 10.0835 17.417 8.85241 17.417 7.3335C17.417 5.81458 16.1859 4.5835 14.667 4.5835ZM7.33366 6.41683C7.83874 6.41683 8.25033 6.82841 8.25033 7.3335C8.25033 7.83858 7.83874 8.25016 7.33366 8.25016C6.82858 8.25016 6.41699 7.83858 6.41699 7.3335C6.41699 6.82841 6.82858 6.41683 7.33366 6.41683ZM14.667 6.41683C15.1721 6.41683 15.5837 6.82841 15.5837 7.3335C15.5837 7.83858 15.1721 8.25016 14.667 8.25016C14.1619 8.25016 13.7503 7.83858 13.7503 7.3335C13.7503 6.82841 14.1619 6.41683 14.667 6.41683ZM7.33366 11.9168C4.58366 11.9168 0.916992 13.2588 0.916992 15.1252V17.4168H12.9053H13.7503H21.0837V15.1252C21.0837 13.2588 17.417 11.9168 14.667 11.9168C13.4899 11.9168 12.1569 12.1762 11.0039 12.6043C9.84879 12.1751 8.51314 11.9168 7.33366 11.9168ZM7.33366 13.7502C9.49699 13.7502 11.5687 14.6903 11.917 15.2165V15.5835H2.75033V15.2165C3.09866 14.6903 5.17033 13.7502 7.33366 13.7502ZM14.667 13.7502C16.8303 13.7502 18.902 14.6903 19.2503 15.2165V15.5835H13.7503V15.1252C13.7503 14.6836 13.5398 14.2726 13.1899 13.9006C13.6663 13.8137 14.158 13.7502 14.667 13.7502Z" fill="#0D2A52"/>
            </svg>