<svg xmlns="http://www.w3.org/2000/svg" width="12" height="18" viewBox="0 0 12 18" fill="none">
                <path fillRule="evenodd" clipRule="evenodd" d="M3.66658 0.666504C1.19444 0.666504 -0.216702 3.4888 1.26658 5.4665L2.56658 7.19984C3.36658 8.2665 3.36658 9.73317 2.56658 10.7998L1.26658 12.5332C-0.216702 14.5109 1.19445 17.3332 3.66658 17.3332H8.33325C10.8054 17.3332 12.2165 14.5109 10.7332 12.5332L9.43325 10.7998C8.63325 9.73317 8.63325 8.2665 9.43325 7.19984L10.7332 5.4665C12.2165 3.4888 10.8054 0.666504 8.33324 0.666504H3.66658ZM6.78078 11.6426C6.38046 11.1422 5.61937 11.1422 5.21904 11.6426L3.96634 13.2085C3.44252 13.8632 3.9087 14.8332 4.7472 14.8332H7.25262C8.09113 14.8332 8.5573 13.8632 8.03349 13.2085L6.78078 11.6426Z" fill="#6C5878"/>
            </svg>