<svg width="18" height="15" viewBox="0 0 18 15" fill="none" xmlns="http://www.w3.org/2000/svg">
                <path d="M17.5 7.27441C17.5 7.65411 17.2178 7.9679 16.8518 8.01757L16.75 8.02441L1.75 8.02441C1.33579 8.02441 1 7.68863 1 7.27441C1 6.89472 1.28215 6.58092 1.64823 6.53126L1.75 6.52441L16.75 6.52441C17.1642 6.52441 17.5 6.8602 17.5 7.27441Z" fill="#495057"/>
                <path d="M8.32801 12.7673C8.62154 13.0595 8.62256 13.5344 8.3303 13.8279C8.06461 14.0948 7.648 14.1199 7.35392 13.9027L7.26964 13.8302L1.21964 7.80623C0.952004 7.53974 0.927658 7.12163 1.14661 6.82755L1.2196 6.74333L7.2696 0.718329C7.5631 0.426043 8.03797 0.427026 8.33026 0.720525C8.59597 0.987342 8.61931 1.40406 8.40085 1.69721L8.32806 1.78118L2.81203 7.27506L8.32801 12.7673Z" fill="#495057"/>
            </svg>