<svg width="56" height="56" viewBox="0 0 56 56" fill="none" xmlns="http://www.w3.org/2000/svg">
<rect x="4" y="4" width="48" height="48" rx="24" fill="#FFF5F1"/>
<path fill-rule="evenodd" clip-rule="evenodd" d="M21 18H35C36.1046 18 37 18.8954 37 20V35.1543C37 36.5396 35.6259 37.5053 34.3226 37.0361L32.7608 36.4739C32.2728 36.2982 31.7356 36.319 31.2626 36.5318L28.8207 37.6307C28.2988 37.8655 27.7012 37.8655 27.1793 37.6307L24.7374 36.5318C24.2644 36.319 23.7272 36.2982 23.2392 36.4739L21.6774 37.0361C20.3741 37.5053 19 36.5396 19 35.1543V20C19 18.8954 19.8954 18 21 18ZM33 23.75C33.4142 23.75 33.75 23.4142 33.75 23C33.75 22.5858 33.4142 22.25 33 22.25L23 22.25C22.5858 22.25 22.25 22.5858 22.25 23C22.25 23.4142 22.5858 23.75 23 23.75L33 23.75ZM33.75 27C33.75 27.4142 33.4142 27.75 33 27.75L23 27.75C22.5858 27.75 22.25 27.4142 22.25 27C22.25 26.5858 22.5858 26.25 23 26.25L33 26.25C33.4142 26.25 33.75 26.5858 33.75 27ZM28 31.75C28.4142 31.75 28.75 31.4142 28.75 31C28.75 30.5858 28.4142 30.25 28 30.25L23 30.25C22.5858 30.25 22.25 30.5858 22.25 31C22.25 31.4142 22.5858 31.75 23 31.75L28 31.75Z" fill="#FFC4B4"/>
<rect x="4" y="4" width="48" height="48" rx="24" stroke="#FEF0EB" stroke-width="8"/>
</svg>
