<svg width="20" height="20" viewBox="0 0 20 20" fill="none" xmlns="http://www.w3.org/2000/svg">
                <path fillRule="evenodd" clipRule="evenodd" d="M2.5 13.7498V4.6665C2.5 3.00965 3.84315 1.6665 5.5 1.6665H12.8333C14.4902 1.6665 15.8333 3.00965 15.8333 4.6665V13.7498H8.58333C8.21514 13.7498 7.91667 14.0483 7.91667 14.4165C7.91667 15.8893 6.70209 17.0832 5.22933 17.0832C3.73356 17.0832 2.5 15.8706 2.5 14.3748V13.7498ZM5.83333 5.20817C5.48816 5.20817 5.20833 5.48799 5.20833 5.83317C5.20833 6.17835 5.48816 6.45817 5.83333 6.45817H12.5C12.8452 6.45817 13.125 6.17835 13.125 5.83317C13.125 5.48799 12.8452 5.20817 12.5 5.20817H5.83333ZM5.20833 9.99984C5.20833 9.65466 5.48816 9.37484 5.83333 9.37484H9.16667C9.51185 9.37484 9.79167 9.65466 9.79167 9.99984C9.79167 10.345 9.51185 10.6248 9.16667 10.6248H5.83333C5.48816 10.6248 5.20833 10.345 5.20833 9.99984ZM19.0638 15.8247C18.6967 17.2667 17.3896 18.3332 15.8333 18.3332H5.83333C7.38957 18.3332 8.69672 17.2667 9.06381 15.8247C9.17736 15.3787 9.53976 14.9998 10 14.9998H18.3333C18.7936 14.9998 19.1774 15.3787 19.0638 15.8247Z" fill="white"/>
            </svg>