<svg width="60" height="60" viewBox="0 0 60 60" fill="none" xmlns="http://www.w3.org/2000/svg">
<path fill-rule="evenodd" clip-rule="evenodd" d="M16.1864 6.78828C20.4063 3.97505 25.9492 6.55417 26.7713 11.291H35C38.797 11.291 41.875 14.3691 41.875 18.166C41.875 19.2016 41.0355 20.041 40 20.041C38.9645 20.041 38.125 19.2016 38.125 18.166C38.125 16.4402 36.7259 15.041 35 15.041H26.875V46.291H35C36.7259 46.291 38.125 44.8919 38.125 43.166C38.125 42.1305 38.9645 41.291 40 41.291C41.0355 41.291 41.875 42.1305 41.875 43.166C41.875 46.963 38.797 50.041 35 50.041H26.7713C25.9492 54.7779 20.4063 57.357 16.1864 54.5438L11.1864 51.2105C9.27382 49.9354 8.125 47.7888 8.125 45.4901V15.842C8.125 13.5433 9.27382 11.3967 11.1864 10.1216L16.1864 6.78828ZM43.6742 36.3259C42.9419 35.5937 42.9419 34.4065 43.6742 33.6743L45.4733 31.8751L32.5 31.8751C31.4645 31.8751 30.625 31.0357 30.625 30.0001C30.625 28.9646 31.4645 28.1251 32.5 28.1251L45.4734 28.1251L43.6742 26.3259C42.9419 25.5937 42.9419 24.4065 43.6742 23.6743C44.4064 22.9421 45.5936 22.9421 46.3258 23.6743L49.5581 26.9065C51.2666 28.6151 51.2666 31.3852 49.5581 33.0937L46.3258 36.326C45.5936 37.0582 44.4064 37.0582 43.6742 36.3259Z" fill="#6C5878"/>
</svg>
