<svg width="48" height="48" viewBox="0 0 48 48" fill="none" xmlns="http://www.w3.org/2000/svg">
<rect x="4" y="4" width="40" height="40" rx="20" fill="#FFFAEB"/>
<path d="M33.7237 24.0001C33.7237 29.3701 29.3716 33.7223 24.0015 33.7223C18.6315 33.7223 14.2793 29.3701 14.2793 24.0001C14.2793 18.63 18.6315 14.2778 24.0015 14.2778C29.3716 14.2778 33.7237 18.63 33.7237 24.0001Z" fill="#F79009"/>
<path d="M17.1582 17.0939C18.916 15.3541 21.3329 14.2778 24.0007 14.2778V24.0001L17.1582 17.0939Z" fill="#EFEFFF"/>
<path d="M31.7782 23.9999C31.7782 28.2952 28.2957 31.7777 24.0004 31.7777C19.7052 31.7777 16.2227 28.2952 16.2227 23.9999C16.2227 19.7047 19.7052 16.2222 24.0004 16.2222C28.2957 16.2222 31.7782 19.7047 31.7782 23.9999Z" fill="white"/>
<path d="M23.0664 24.2734C23.218 24.7872 23.7586 25.0832 24.2724 24.9316C24.7862 24.7799 25.0823 24.2413 24.9306 23.727C24.7789 23.2112 24.2403 22.9171 23.726 23.0669C23.2107 23.219 22.9166 23.7576 23.0664 24.2734Z" fill="black"/>
<path d="M17.1582 17.0938L24.5646 23.21L23.2283 24.5896L17.1582 17.0938Z" fill="black"/>
<path d="M23.5137 23.9983C23.5137 24.2681 23.7319 24.4844 23.9998 24.4844C24.2676 24.4844 24.4859 24.2681 24.4859 23.9983C24.4859 23.7305 24.2676 23.5122 23.9998 23.5122C23.7319 23.5122 23.5137 23.7305 23.5137 23.9983Z" fill="#F79009"/>
<path d="M21.6743 14.5695C21.6087 14.7853 21.5703 15.0123 21.5703 15.2501C21.5703 16.5917 22.6592 17.6806 24.0009 17.6806C25.3425 17.6806 26.4314 16.5917 26.4314 15.2501C26.4314 15.0123 26.393 14.7853 26.3274 14.5695C25.5807 14.3857 24.8044 14.2778 24.0009 14.2778C23.1973 14.2778 22.421 14.3857 21.6743 14.5695Z" fill="#EFEFFF"/>
<path d="M25.4596 15.2503C25.4596 16.0553 24.8063 16.7087 24.0013 16.7087C23.1963 16.7087 22.543 16.0553 22.543 15.2503C22.543 14.4453 23.1963 13.792 24.0013 13.792C24.8063 13.792 25.4596 14.4453 25.4596 15.2503Z" fill="#F79009"/>
<rect x="2" y="2" width="44" height="44" rx="22" stroke="#F79009" stroke-opacity="0.2" stroke-width="4"/>
</svg>
