<svg width="56" height="56" viewBox="0 0 56 56" fill="none" xmlns="http://www.w3.org/2000/svg">
                <rect x="2" y="2" width="52" height="52" rx="26" fill="#FFF5F1"/>
                <path fillRule="evenodd" clipRule="evenodd" d="M27.9997 26.8333C30.577 26.8333 32.6663 24.744 32.6663 22.1667C32.6663 19.5893 30.577 17.5 27.9997 17.5C25.4223 17.5 23.333 19.5893 23.333 22.1667C23.333 24.744 25.4223 26.8333 27.9997 26.8333ZM27.9997 38.5C32.51 38.5 36.1663 36.4107 36.1663 33.8333C36.1663 31.256 32.51 29.1667 27.9997 29.1667C23.4893 29.1667 19.833 31.256 19.833 33.8333C19.833 36.4107 23.4893 38.5 27.9997 38.5Z" fill="#FFC4B4"/>
                <rect x="2" y="2" width="52" height="52" rx="26" stroke="#FEF0EB" strokeWidth="4"/>
            </svg>