<svg width="22" height="14" viewBox="0 0 22 14" fill="none" xmlns="http://www.w3.org/2000/svg">
                <path d="M7.33366 0.583496C5.81474 0.583496 4.58366 1.81458 4.58366 3.3335C4.58366 4.85241 5.81474 6.0835 7.33366 6.0835C8.85258 6.0835 10.0837 4.85241 10.0837 3.3335C10.0837 1.81458 8.85258 0.583496 7.33366 0.583496ZM14.667 0.583496C13.1481 0.583496 11.917 1.81458 11.917 3.3335C11.917 4.85241 13.1481 6.0835 14.667 6.0835C16.1859 6.0835 17.417 4.85241 17.417 3.3335C17.417 1.81458 16.1859 0.583496 14.667 0.583496ZM7.33366 2.41683C7.83874 2.41683 8.25033 2.82841 8.25033 3.3335C8.25033 3.83858 7.83874 4.25016 7.33366 4.25016C6.82858 4.25016 6.41699 3.83858 6.41699 3.3335C6.41699 2.82841 6.82858 2.41683 7.33366 2.41683ZM14.667 2.41683C15.1721 2.41683 15.5837 2.82841 15.5837 3.3335C15.5837 3.83858 15.1721 4.25016 14.667 4.25016C14.1619 4.25016 13.7503 3.83858 13.7503 3.3335C13.7503 2.82841 14.1619 2.41683 14.667 2.41683ZM7.33366 7.91683C4.58366 7.91683 0.916992 9.25883 0.916992 11.1252V13.4168H12.9053H13.7503H21.0837V11.1252C21.0837 9.25883 17.417 7.91683 14.667 7.91683C13.4899 7.91683 12.1569 8.17619 11.0039 8.60433C9.84879 8.1751 8.51314 7.91683 7.33366 7.91683ZM7.33366 9.75016C9.49699 9.75016 11.5687 10.6903 11.917 11.2165V11.5835H2.75033V11.2165C3.09866 10.6903 5.17033 9.75016 7.33366 9.75016ZM14.667 9.75016C16.8303 9.75016 18.902 10.6903 19.2503 11.2165V11.5835H13.7503V11.1252C13.7503 10.6836 13.5398 10.2726 13.1899 9.90055C13.6663 9.8137 14.158 9.75016 14.667 9.75016Z" fill="#0D2A52"/>
            </svg>