 <svg width="56" height="56" viewBox="0 0 56 56" fill="none" xmlns="http://www.w3.org/2000/svg">
                <rect x="2" y="2" width="52" height="52" rx="26" fill="#FFF5F1"/>
                <path fillRule="evenodd" clipRule="evenodd" d="M28.0002 26.8333C30.5775 26.8333 32.6668 24.744 32.6668 22.1667C32.6668 19.5893 30.5775 17.5 28.0002 17.5C25.4228 17.5 23.3335 19.5893 23.3335 22.1667C23.3335 24.744 25.4228 26.8333 28.0002 26.8333ZM28.0002 38.5C32.5105 38.5 36.1668 36.4107 36.1668 33.8333C36.1668 31.256 32.5105 29.1667 28.0002 29.1667C23.4898 29.1667 19.8335 31.256 19.8335 33.8333C19.8335 36.4107 23.4898 38.5 28.0002 38.5Z" fill="#FFC4B4"/>
                <rect x="2" y="2" width="52" height="52" rx="26" stroke="#FEF0EB" strokeWidth="4"/>
            </svg>