<svg width="18" height="15" viewBox="0 0 18 15" fill="none" xmlns="http://www.w3.org/2000/svg">
<path d="M16.7741 6.5625H10.4224V0.9375C10.4224 0.68886 10.3109 0.450403 10.1124 0.274588C9.91385 0.0987722 9.64459 0 9.36382 0C9.08306 0 8.8138 0.0987722 8.61528 0.274588C8.41675 0.450403 8.30522 0.68886 8.30522 0.9375V6.5625H1.95357C1.67281 6.5625 1.40355 6.66127 1.20502 6.83709C1.00649 7.0129 0.894958 7.25136 0.894958 7.5C0.894958 7.74864 1.00649 7.9871 1.20502 8.16291C1.40355 8.33873 1.67281 8.4375 1.95357 8.4375H8.30522V14.0625C8.30522 14.3111 8.41675 14.5496 8.61528 14.7254C8.8138 14.9012 9.08306 15 9.36382 15C9.64459 15 9.91385 14.9012 10.1124 14.7254C10.3109 14.5496 10.4224 14.3111 10.4224 14.0625V8.4375H16.7741C17.0548 8.4375 17.3241 8.33873 17.5226 8.16291C17.7212 7.9871 17.8327 7.74864 17.8327 7.5C17.8327 7.25136 17.7212 7.0129 17.5226 6.83709C17.3241 6.66127 17.0548 6.5625 16.7741 6.5625Z" fill="#12141D"/>
</svg>
