<svg width="20" height="20" viewBox="0 0 20 20" fill="none" xmlns="http://www.w3.org/2000/svg">
<path fill-rule="evenodd" clip-rule="evenodd" d="M13.0935 13.9775C13.3376 14.2216 13.7334 14.2216 13.9774 13.9775C14.2215 13.7334 14.2215 13.3377 13.9774 13.0936L10.8839 10L13.9774 6.90646C14.2215 6.66238 14.2215 6.26665 13.9774 6.02257C13.7333 5.77849 13.3376 5.77849 13.0935 6.02257L9.99997 9.11614L6.90637 6.02254C6.66229 5.77846 6.26656 5.77846 6.02248 6.02254C5.7784 6.26661 5.7784 6.66234 6.02248 6.90642L9.11609 10L6.02247 13.0936C5.7784 13.3377 5.7784 13.7334 6.02247 13.9775C6.26655 14.2216 6.66228 14.2216 6.90636 13.9775L9.99997 10.8839L13.0935 13.9775Z" fill="#FF0000"/>
</svg>
