<svg width="20" height="20" viewBox="0 0 20 20" fill="none" xmlns="http://www.w3.org/2000/svg">
                <path fillRule="evenodd" clipRule="evenodd" d="M7.66658 1.6665C5.19444 1.6665 3.7833 4.4888 5.26658 6.4665L6.56658 8.19984C7.36658 9.2665 7.36658 10.7332 6.56658 11.7998L5.26658 13.5332C3.7833 15.5109 5.19445 18.3332 7.66658 18.3332H12.3332C14.8054 18.3332 16.2165 15.5109 14.7332 13.5332L13.4332 11.7998C12.6332 10.7332 12.6332 9.2665 13.4332 8.19984L14.7332 6.4665C16.2165 4.4888 14.8054 1.6665 12.3332 1.6665H7.66658ZM10.7808 12.6426C10.3805 12.1422 9.61937 12.1422 9.21904 12.6426L7.96634 14.2085C7.44252 14.8632 7.9087 15.8332 8.7472 15.8332H11.2526C12.0911 15.8332 12.5573 14.8632 12.0335 14.2085L10.7808 12.6426Z" fill="#6C5878"/>
            </svg>