<svg width="20" height="20" viewBox="0 0 20 20" fill="none"
                 xmlns="http://www.w3.org/2000/svg">
                <path
                    d="M11.9111 13.9226C11.5856 13.5972 11.5856 13.0695 11.9111 12.7441C12.2365 12.4186 12.7641 12.4186 13.0896 12.7441L16.4229 16.0774C16.7484 16.4028 16.7484 16.9305 16.4229 17.2559C16.0975 17.5814 15.5698 17.5814 15.2444 17.2559L11.9111 13.9226Z"
                    fill="#082678"/>
                <path fillRule="evenodd" clipRule="evenodd"
                      d="M3.33301 9.16634C3.33301 12.388 5.94468 14.9997 9.16634 14.9997C12.388 14.9997 14.9997 12.388 14.9997 9.16634C14.9997 5.94468 12.388 3.33301 9.16634 3.33301C5.94468 3.33301 3.33301 5.94468 3.33301 9.16634ZM13.3333 9.16642C13.3333 11.4676 11.4679 13.3331 9.16667 13.3331C6.86548 13.3331 5 11.4676 5 9.16642C5 6.86524 6.86548 4.99976 9.16667 4.99976C11.4679 4.99976 13.3333 6.86524 13.3333 9.16642Z"
                      fill="#082678"/>
            </svg>