<svg width="20" height="20" viewBox="0 0 20 20" fill="none" xmlns="http://www.w3.org/2000/svg">
<path fill-rule="evenodd" clip-rule="evenodd" d="M13.7979 6.25148C14.0288 5.99491 14.008 5.59973 13.7514 5.36882C13.4949 5.13791 13.0997 5.15871 12.8688 5.41528L7.85631 10.9847L7.05711 10.3453C6.78758 10.1297 6.39427 10.1734 6.17864 10.4429C5.96301 10.7125 6.00671 11.1058 6.27625 11.3214L7.01869 11.9154L6.42079 12.5797C6.05165 12.9899 5.42669 13.041 4.9958 12.6963L2.05711 10.3453C1.78758 10.1297 1.39427 10.1734 1.17864 10.4429C0.963006 10.7125 1.00671 11.1058 1.27625 11.3214L4.21493 13.6724C5.1629 14.4307 6.53779 14.3183 7.34991 13.4159L7.99643 12.6976L9.21493 13.6724C10.1629 14.4307 11.5378 14.3183 12.3499 13.4159L18.7979 6.25148C19.0288 5.99491 19.008 5.59973 18.7514 5.36882C18.4949 5.13791 18.0997 5.15871 17.8688 5.41528L11.4208 12.5797C11.0516 12.9899 10.4267 13.041 9.9958 12.6963L8.83405 11.7669L13.7979 6.25148Z" fill="#027A48"/>
</svg>
