<svg width="56" height="56" viewBox="0 0 56 56" fill="none" xmlns="http://www.w3.org/2000/svg">
<rect x="4" y="4" width="48" height="48" rx="24" fill="#FFF5F1"/>
<path fill-rule="evenodd" clip-rule="evenodd" d="M31 18H21C19.3431 18 18 19.3431 18 21V35C18 36.6569 19.3431 38 21 38H36C34.8954 38 34 37.1046 34 36V24V21C34 19.3431 32.6569 18 31 18ZM21.25 23C21.25 22.5858 21.5858 22.25 22 22.25H30C30.4142 22.25 30.75 22.5858 30.75 23C30.75 23.4142 30.4142 23.75 30 23.75H22C21.5858 23.75 21.25 23.4142 21.25 23ZM22 27.25C21.5858 27.25 21.25 27.5858 21.25 28C21.25 28.4142 21.5858 28.75 22 28.75H30C30.4142 28.75 30.75 28.4142 30.75 28C30.75 27.5858 30.4142 27.25 30 27.25H22ZM21.25 33C21.25 32.5858 21.5858 32.25 22 32.25H26C26.4142 32.25 26.75 32.5858 26.75 33C26.75 33.4142 26.4142 33.75 26 33.75H22C21.5858 33.75 21.25 33.4142 21.25 33ZM38 35.25V26C38 24.8954 37.1046 24 36 24H35.5V35.25C35.5 35.9404 36.0596 36.5 36.75 36.5C37.4404 36.5 38 35.9404 38 35.25Z" fill="#FFC4B4"/>
<rect x="4" y="4" width="48" height="48" rx="24" stroke="#FEF0EB" stroke-width="8"/>
</svg>
